<?xml version="1.0" encoding="utf-8"?>
<!-- Generator: Adobe Illustrator 23.0.0, SVG Export Plug-In . SVG Version: 6.00 Build 0)  -->
<svg version="1.1" id="Layer_1" xmlns="http://www.w3.org/2000/svg" xmlns:xlink="http://www.w3.org/1999/xlink" x="0px" y="0px"
	 viewBox="0 0 550 64" style="enable-background:new 0 0 550 64;" xml:space="preserve">
<style type="text/css">
	.st0{fill:#509E2F;}
	.st1{fill:#154734;}
</style>
<g>
	<path class="st0" d="M93.64,32c0,17.67-14.33,32-32,32c-17.67,0-32-14.33-32-32c0-17.67,14.33-32,32-32
		C79.31,0,93.64,14.33,93.64,32z"/>
	<g>
		<g>
			<g>
				<path d="M44.82,50.42V21.09h8.3v29.33H44.82z"/>
				<path d="M71.26,50.42V37.93c0-2.85-0.96-3.6-2.51-3.6c-1.59,0-2.56,0.75-2.56,3.52v12.57h-7.54v-22h7.54v1.47
					c1.38-1.05,2.93-1.93,5.53-1.93c4.82,0,7.12,3.23,7.12,9.01v13.45H71.26z"/>
				<path d="M92,50.88c-3.23,0-6.37-0.71-9.18-1.8l1.76-5.7c2.64,1.17,5.66,1.93,7.58,1.93c1.47,0,2.01-0.34,2.01-1.01
					c0-0.71-0.33-1.01-1.76-1.38c-6.79-1.8-9.13-3.18-9.13-7.75c0-4.53,2.98-7.21,8.97-7.21c3.31,0,5.53,0.55,8.46,1.59l-1.68,5.82
					c-2.89-1.26-5.07-1.84-7-1.84c-1.47,0-1.84,0.29-1.84,0.96c0,0.67,0.25,0.92,2.18,1.51c6.2,1.63,8.72,3.1,8.72,7.46
					C101.09,48.53,97.61,50.88,92,50.88z"/>
				<path d="M109.26,26.83c-2.47,0-4.32-1.42-4.32-3.73c0-2.14,1.84-3.64,4.32-3.64c2.6,0,4.4,1.51,4.4,3.64
					C113.66,25.41,111.85,26.83,109.26,26.83z M105.49,50.42v-22h7.54v22H105.49z"/>
				<path d="M129.62,50.42v-1.55c-1.47,1.17-2.89,2.01-5.2,2.01c-4.11,0-7.29-3.23-7.29-11.4c0-7.88,2.81-11.52,7.58-11.52
					c2.22,0,3.69,1.01,4.9,1.93v-7l7.58-3.02v30.55H129.62z M129.62,35.21c-0.75-0.63-1.51-1.05-2.68-1.05
					c-1.55,0-2.39,0.96-2.39,5.07c0,4.4,0.84,5.45,2.43,5.45c1.09,0,1.89-0.42,2.64-1.05V35.21z"/>
				<path d="M160.83,41.58h-12.91c0.25,2.43,1.68,3.52,3.73,3.52c1.93,0,3.52-0.42,5.7-1.55l2.89,4.82
					c-2.72,1.59-5.53,2.51-8.97,2.51c-6.62,0-10.27-4.69-10.27-11.44c0-7.58,4.27-11.48,10.06-11.48c6.03,0,9.81,3.98,9.81,12.15
					C160.87,40.74,160.87,41.2,160.83,41.58z M150.86,33.53c-1.72,0-2.68,1.17-2.93,3.35h6.28
					C153.84,34.67,153.08,33.53,150.86,33.53z"/>
				<path d="M177.63,50.88c-7.96,0-13.53-5.32-13.53-15.08c0-9.76,5.66-15.17,13.62-15.17c7.96,0,13.53,5.32,13.53,15.08
					S185.59,50.88,177.63,50.88z M177.63,27.71c-3.27,0-5.11,2.72-5.11,8c0,5.28,1.93,8.09,5.2,8.09c3.27,0,5.11-2.72,5.11-8
					C182.83,30.52,180.9,27.71,177.63,27.71z"/>
				<path d="M208.85,49.71c-1.47,0.71-3.31,1.17-5.45,1.17c-3.98,0-5.82-2.01-5.82-7v-9.55h-3.35v-5.91h3.35v-5.57l7.33-2.97v8.55
					h4.78v5.91h-4.78v7.96c0,1.68,0.63,2.18,1.89,2.18c1.01,0,1.84-0.38,3.02-1.17L208.85,49.71z"/>
				<path d="M227.08,49.71c-1.47,0.71-3.31,1.17-5.45,1.17c-3.98,0-5.82-2.01-5.82-7v-9.55h-3.35v-5.91h3.35v-5.57l7.33-2.97v8.55
					h4.78v5.91h-4.78v7.96c0,1.68,0.63,2.18,1.89,2.18c1.01,0,1.84-0.38,3.02-1.17L227.08,49.71z"/>
				<path d="M243.55,50.42v-1.47c-1.42,1.09-3.35,1.93-5.36,1.93c-4.27,0-7.12-2.64-7.12-7.58c0-4.73,3.27-7.17,7.92-7.17
					c2.01,0,3.35,0.38,4.57,0.92v-1.09c0-1.93-1.05-2.6-3.1-2.6c-2.26,0-3.98,0.42-6.12,1.59l-1.97-4.99
					c2.68-1.3,5.66-2.01,9.47-2.01c6.16,0,8.84,3.06,8.84,8.17v14.29H243.55z M243.55,41.45c-0.84-0.38-1.8-0.63-3.23-0.63
					c-1.55,0-2.35,0.84-2.35,2.35c0,1.38,0.71,2.39,2.35,2.39c1.26,0,2.51-0.5,3.23-1.09V41.45z"/>
				<path d="M276.22,50.42h-6.12l-0.92-4.48c-0.5-2.51-1.38-7.37-1.63-8.97c-0.29,1.59-1.09,6.41-1.68,9.05l-0.92,4.4H259l-6.2-22
					h7.29l0.63,3.27c0.46,2.51,1.17,7.37,1.42,8.97c0.29-1.59,1.17-6.41,1.72-9.05l0.71-3.18h6.2l0.67,3.18
					c0.54,2.64,1.42,7.46,1.72,9.05c0.25-1.59,0.96-6.45,1.47-8.97l0.59-3.27h7.21L276.22,50.42z"/>
				<path d="M295.96,50.42v-1.47c-1.42,1.09-3.35,1.93-5.36,1.93c-4.27,0-7.12-2.64-7.12-7.58c0-4.73,3.27-7.17,7.92-7.17
					c2.01,0,3.35,0.38,4.57,0.92v-1.09c0-1.93-1.05-2.6-3.1-2.6c-2.26,0-3.98,0.42-6.12,1.59l-1.97-4.99
					c2.68-1.3,5.66-2.01,9.47-2.01c6.16,0,8.84,3.06,8.84,8.17v14.29H295.96z M295.96,41.45c-0.84-0.38-1.8-0.63-3.23-0.63
					c-1.55,0-2.35,0.84-2.35,2.35c0,1.38,0.71,2.39,2.35,2.39c1.26,0,2.51-0.5,3.23-1.09V41.45z"/>
				<path d="M324.78,50.42h-8.21l-10.1-29.33h9.13l2.14,7.88c1.01,3.65,2.43,9.6,2.98,12.4c0.54-2.81,1.97-8.71,2.98-12.4l2.14-7.88
					h9.05L324.78,50.42z"/>
				<path d="M346.73,50.42v-1.47c-1.42,1.09-3.35,1.93-5.36,1.93c-4.27,0-7.12-2.64-7.12-7.58c0-4.73,3.27-7.17,7.92-7.17
					c2.01,0,3.35,0.38,4.57,0.92v-1.09c0-1.93-1.05-2.6-3.1-2.6c-2.26,0-3.98,0.42-6.12,1.59l-1.97-4.99
					c2.68-1.3,5.66-2.01,9.47-2.01c6.16,0,8.84,3.06,8.84,8.17v14.29H346.73z M346.73,41.45c-0.84-0.38-1.8-0.63-3.23-0.63
					c-1.55,0-2.35,0.84-2.35,2.35c0,1.38,0.71,2.39,2.35,2.39c1.26,0,2.51-0.5,3.23-1.09V41.45z"/>
				<path d="M358.59,50.42V22.89l7.54-3.02v30.55H358.59z"/>
				<path d="M371.24,50.42V22.89l7.54-3.02v30.55H371.24z"/>
				<path d="M402.62,41.58h-12.9c0.25,2.43,1.68,3.52,3.73,3.52c1.93,0,3.52-0.42,5.7-1.55l2.89,4.82
					c-2.72,1.59-5.53,2.51-8.97,2.51c-6.62,0-10.27-4.69-10.27-11.44c0-7.58,4.27-11.48,10.06-11.48c6.03,0,9.8,3.98,9.8,12.15
					C402.67,40.74,402.67,41.2,402.62,41.58z M392.65,33.53c-1.72,0-2.68,1.17-2.93,3.35H396
					C395.63,34.67,394.87,33.53,392.65,33.53z"/>
				<path d="M416.62,58.17h-7.21l2.77-6.83l-8.38-22.92h8l2.1,7.84c0.5,1.84,1.42,5.74,1.68,7.84c0.29-2.09,1.22-5.99,1.72-7.92
					l2.05-7.75h7.92L416.62,58.17z"/>
				<path class="st1" d="M435.36,51.08c-3.14,0-5.47-2.33-5.47-5.47c0-3.14,2.33-5.38,5.47-5.38c3.14,0,5.47,2.24,5.47,5.38
					C440.83,48.75,438.5,51.08,435.36,51.08z"/>
				<path d="M457.94,34.75c-1.8-1.84-3.39-2.68-5.36-2.68c-3.14,0-5.15,2.81-5.15,7.29c0,4.32,1.84,7.42,5.28,7.42
					c2.05,0,3.27-0.92,4.99-2.72l2.77,2.72c-1.72,2.18-3.9,4.11-7.88,4.11c-5.36,0-9.51-4.53-9.51-11.4
					c0-7.29,4.27-11.52,9.64-11.52c3.23,0,5.74,1.3,7.79,3.73L457.94,34.75z"/>
				<path d="M473.48,50.88c-5.53,0-9.68-4.57-9.68-11.44c0-7.21,4.27-11.48,9.81-11.48c5.61,0,9.8,4.48,9.8,11.36
					C483.41,46.61,479.14,50.88,473.48,50.88z M473.44,32.07c-3.27,0-5.28,2.89-5.28,7.25c0,4.82,2.22,7.46,5.49,7.46
					c3.27,0,5.41-3.31,5.41-7.33C479.05,34.96,476.92,32.07,473.44,32.07z"/>
				<path d="M513.03,50.42V37.98c0-4.44-1.38-6.03-4.23-6.03c-2.89,0-4.23,2.05-4.23,5.61v12.86h-4.32V37.98
					c0-4.44-1.38-6.03-4.23-6.03c-2.89,0-4.23,2.05-4.23,5.61v12.86h-4.32v-22h4.32v2.1c1.09-1.59,2.98-2.56,5.24-2.56
					c2.98,0,4.86,1.13,6.03,3.23c1.59-1.97,3.31-3.23,6.75-3.23c5.11,0,7.54,3.35,7.54,9.85v12.61H513.03z"/>
			</g>
		</g>
	</g>
</g>
</svg>
