<?xml version="1.0" encoding="UTF-8"?>
<svg width="36px" height="36px" viewBox="0 0 36 36" version="1.1" xmlns="http://www.w3.org/2000/svg" xmlns:xlink="http://www.w3.org/1999/xlink">
    <!-- Generator: Sketch 52.5 (67469) - http://www.bohemiancoding.com/sketch -->
    <title>Communities/Icon/Social/Fb/Default Copy</title>
    <desc>Created with Sketch.</desc>
    <g id="FOOTER" stroke="none" stroke-width="1" fill="none" fill-rule="evenodd">
        <g id="ASSET-Sheet-DESKTOP" transform="translate(-158.000000, -1424.000000)">
            <g id="Communities/Icon/Social/Twitter/Default" transform="translate(158.000000, 1424.000000)">
                <g id="Communities/Icon/Social/Twitter/Default-Copy">
                    <g id="Twitter">
                        <circle id="Oval-2" fill="#006633" cx="18" cy="18" r="17"></circle>
                        <path d="M0,18 C0,8.05887401 8.05887401,0 18,0 C27.941126,0 36,8.05887401 36,18 C36,27.941126 27.941126,36 18,36 C8.05887401,36 0,27.941126 0,18 Z M17.460902,14.6306255 L17.4986739,15.2534661 L16.8691425,15.1771999 C14.5776482,14.8848461 12.5757383,13.8933856 10.8760036,12.2282403 L10.0450221,11.4020231 L9.83098144,12.0121527 C9.37771884,13.3722332 9.66730328,14.8085799 10.6116004,15.7746184 C11.1152255,16.3084818 11.0019098,16.384748 10.1331565,16.0669722 C9.83098144,15.9652839 9.56657826,15.8890177 9.541397,15.9271508 C9.45326261,16.016128 9.75543768,17.172832 9.99465961,17.6304292 C10.3220159,18.2659809 10.9893192,18.8888215 11.7195756,19.2574414 L12.3365164,19.5497952 L11.60626,19.5625062 C10.9011848,19.5625062 10.8760036,19.5752172 10.9515473,19.8421489 C11.2033599,20.6683661 12.1980195,21.5454273 13.3059948,21.9267583 L14.0866137,22.19369 L13.4067198,22.6004431 C12.3994695,23.1851506 11.2159505,23.5156374 10.0324315,23.5410595 C9.46585323,23.5537705 9,23.6046146 9,23.6427477 C9,23.7698581 10.5360566,24.4816759 11.4299912,24.7613186 C14.1117949,25.5875358 17.2972238,25.2316269 19.6894431,23.8207022 C21.3891779,22.8165306 23.0889127,20.8208985 23.8821222,18.8888215 C24.3102036,17.8592278 24.7382849,15.9779949 24.7382849,15.0755116 C24.7382849,14.4908041 24.7760568,14.4145379 25.481132,13.7154311 C25.8966227,13.3086781 26.2869321,12.8637919 26.3624759,12.7366816 C26.4883822,12.495172 26.4757916,12.495172 25.8336695,12.7112595 C24.7634662,13.0925905 24.6123786,13.0417464 25.141185,12.4697499 C25.5314945,12.0629968 25.9973477,11.3257569 25.9973477,11.1096694 C25.9973477,11.0715363 25.8084883,11.1350914 25.5944476,11.2494907 C25.3678163,11.3766011 24.8641912,11.5672666 24.4864724,11.6816659 L23.8065784,11.8977534 L23.1896377,11.4782893 C22.8496907,11.2494907 22.3712469,10.9952701 22.1194343,10.9190039 C21.4773123,10.7410494 20.4952433,10.7664715 19.9160744,10.969848 C18.3422459,11.5418445 17.3475863,13.0163243 17.460902,14.6306255 Z" id="Combined-Shape" fill="#FFFFFF"></path>
                    </g>
                </g>
            </g>
        </g>
    </g>
</svg>