<svg version="1.1" id="Layer_1"
	xmlns="http://www.w3.org/2000/svg"
	xmlns:xlink="http://www.w3.org/1999/xlink" x="0px" y="0px" viewBox="0 0 47 47" style="width: 20px; height: 18px;" xml:space="preserve">
	<style type="text/css">
                                .st0 {
                                fill: #1B8644;
                                }
                                </style>
	<g>
		<g>
			<path class="st0" d="M28.3,13.9c-0.3-0.4-0.9-0.4-1.3,0c-0.3,0.3-0.3,0.9,0,1.3l6.5,6.5H12c-0.5,0-0.9,0.4-0.9,0.9    c0,0.5,0.4,0.9,0.9,0.9h21.5L27,30c-0.3,0.4-0.3,0.9,0,1.3c0.4,0.4,0.9,0.4,1.3,0l8-8c0.4-0.3,0.4-0.9,0-1.3L28.3,13.9z M23.5,0    C10.5,0,0,10.5,0,23.5C0,36.4,10.5,47,23.5,47S47,36.4,47,23.5C47,10.5,36.4,0,23.5,0z M23.5,45C11.6,45,2,35.4,2,23.5    C2,11.6,11.6,2,23.5,2C35.4,2,45,11.6,45,23.5C45,35.4,35.4,45,23.5,45z"></path>
		</g>
	</g>
</svg>