<?xml version="1.0" encoding="utf-8"?>
<!-- Generator: Adobe Illustrator 23.0.0, SVG Export Plug-In . SVG Version: 6.00 Build 0)  -->
<svg version="1.1" id="Layer_1" xmlns="http://www.w3.org/2000/svg" xmlns:xlink="http://www.w3.org/1999/xlink" x="0px" y="0px"
	 viewBox="0 0 500 64" style="enable-background:new 0 0 500 64;" xml:space="preserve">
<style type="text/css">
	.st0{fill:#509E2F;}
	.st1{fill:#154734;}
</style>
<g>
	<path class="st0" d="M87.09,32c0,17.67-14.33,32-32,32c-17.67,0-32-14.33-32-32c0-17.67,14.33-32,32-32
		C72.77,0,87.09,14.33,87.09,32z"/>
	<g>
		<g>
			<g>
				<path d="M57.17,50.42l-7-9.68c-1.3-1.8-3.81-5.57-4.57-6.87c0.21,1.3,0.25,5.2,0.25,7.58v8.97h-7.79V21.09h7.17l6.45,8.67
					c1.34,1.8,3.94,5.7,4.57,6.91c-0.21-1.3-0.25-5.2-0.25-7.58v-8h7.79v29.33H57.17z"/>
				<path d="M73.09,26.83c-2.47,0-4.32-1.42-4.32-3.73c0-2.14,1.84-3.65,4.32-3.65c2.6,0,4.4,1.51,4.4,3.65
					C77.49,25.41,75.69,26.83,73.09,26.83z M69.32,50.42v-22h7.54v22H69.32z"/>
				<path d="M93.5,50.42v-1.47c-1.42,1.09-3.35,1.93-5.36,1.93c-4.27,0-7.12-2.64-7.12-7.58c0-4.73,3.27-7.17,7.92-7.17
					c2.01,0,3.35,0.38,4.57,0.92v-1.09c0-1.93-1.05-2.6-3.1-2.6c-2.26,0-3.98,0.42-6.12,1.59l-1.97-4.99
					c2.68-1.3,5.66-2.01,9.47-2.01c6.16,0,8.84,3.06,8.84,8.17v14.29H93.5z M93.5,41.45c-0.84-0.38-1.8-0.63-3.23-0.63
					c-1.55,0-2.35,0.84-2.35,2.35c0,1.38,0.71,2.39,2.35,2.39c1.26,0,2.51-0.5,3.23-1.09V41.45z"/>
				<path d="M112.94,58.51l-2.77-4.36c5.36-0.88,6.66-1.72,6.66-4.73v-0.75c-1.47,1.17-2.89,2.01-5.2,2.01
					c-4.11,0-7.29-3.02-7.29-11.19c0-7.88,2.81-11.52,7.58-11.52c2.22,0,3.69,1.01,4.9,1.93v-1.47h7.58v18.69
					C124.42,54.65,120.9,57.38,112.94,58.51z M116.83,35.21c-0.75-0.63-1.51-1.05-2.68-1.05c-1.55,0-2.39,0.96-2.39,5.07
					c0,4.4,0.84,5.45,2.43,5.45c1.09,0,1.89-0.42,2.64-1.05V35.21z"/>
				<path d="M140.84,50.42v-1.47c-1.42,1.09-3.35,1.93-5.36,1.93c-4.27,0-7.12-2.64-7.12-7.58c0-4.73,3.27-7.17,7.92-7.17
					c2.01,0,3.35,0.38,4.57,0.92v-1.09c0-1.93-1.05-2.6-3.1-2.6c-2.26,0-3.98,0.42-6.12,1.59l-1.97-4.99
					c2.68-1.3,5.66-2.01,9.47-2.01c6.16,0,8.84,3.06,8.84,8.17v14.29H140.84z M140.84,41.45c-0.84-0.38-1.8-0.63-3.23-0.63
					c-1.55,0-2.35,0.84-2.35,2.35c0,1.38,0.71,2.39,2.35,2.39c1.26,0,2.51-0.5,3.23-1.09V41.45z"/>
				<path d="M166.52,36.72c-0.96-1.05-2.05-1.84-3.52-1.84c-1.84,0-2.97,0.88-2.97,3.56v11.98h-7.54v-22h7.54v1.59
					c1.3-1.26,2.77-2.05,4.69-2.05c1.59,0,2.68,0.38,3.56,0.92L166.52,36.72z"/>
				<path d="M181.95,50.42v-1.47c-1.42,1.09-3.35,1.93-5.36,1.93c-4.27,0-7.12-2.64-7.12-7.58c0-4.73,3.27-7.17,7.92-7.17
					c2.01,0,3.35,0.38,4.57,0.92v-1.09c0-1.93-1.05-2.6-3.1-2.6c-2.26,0-3.98,0.42-6.12,1.59l-1.97-4.99
					c2.68-1.3,5.66-2.01,9.47-2.01c6.16,0,8.84,3.06,8.84,8.17v14.29H181.95z M181.95,41.45c-0.84-0.38-1.8-0.63-3.23-0.63
					c-1.55,0-2.35,0.84-2.35,2.35c0,1.38,0.71,2.39,2.35,2.39c1.26,0,2.51-0.5,3.23-1.09V41.45z"/>
				<path d="M209.35,28.17v22.25h-8.13V28.17h-8.21v-7.08h24.55v7.08H209.35z"/>
				<path d="M233.65,50.42V37.93c0-2.85-0.96-3.6-2.51-3.6c-1.59,0-2.56,0.75-2.56,3.52v12.57h-7.54V22.89l7.54-3.02v10.01
					c1.38-1.05,2.93-1.93,5.53-1.93c4.82,0,7.12,3.23,7.12,9.01v13.45H233.65z"/>
				<path d="M249.74,26.83c-2.47,0-4.32-1.42-4.32-3.73c0-2.14,1.84-3.65,4.32-3.65c2.6,0,4.4,1.51,4.4,3.65
					C254.14,25.41,252.34,26.83,249.74,26.83z M245.97,50.42v-22h7.54v22H245.97z"/>
				<path d="M267.04,50.88c-3.23,0-6.37-0.71-9.18-1.8l1.76-5.7c2.64,1.17,5.66,1.93,7.58,1.93c1.47,0,2.01-0.34,2.01-1.01
					c0-0.71-0.33-1.01-1.76-1.38c-6.79-1.8-9.13-3.18-9.13-7.75c0-4.53,2.98-7.21,8.97-7.21c3.31,0,5.53,0.55,8.46,1.59l-1.68,5.82
					c-2.89-1.26-5.07-1.84-7-1.84c-1.47,0-1.84,0.29-1.84,0.96c0,0.67,0.25,0.92,2.18,1.51c6.2,1.63,8.72,3.1,8.72,7.46
					C276.14,48.53,272.66,50.88,267.04,50.88z"/>
				<path d="M308.19,50.42h-7.5l-1.34-6.37c-0.96-4.53-1.84-10.01-2.01-12.15c-0.17,2.14-1.05,7.62-2.01,12.15l-1.34,6.37h-7.42
					l-7-29.33h8.38l0.8,4.9c0.67,4.15,1.47,9.26,1.76,12.74c0.33-3.44,1.26-8.51,2.18-12.7l1.01-4.94h7.46l1.01,4.94
					c0.92,4.19,1.84,9.26,2.18,12.7c0.29-3.48,1.09-8.59,1.76-12.74l0.8-4.9h8.3L308.19,50.42z"/>
				<path d="M336.09,41.58h-12.91c0.25,2.43,1.68,3.52,3.73,3.52c1.93,0,3.52-0.42,5.7-1.55l2.89,4.82
					c-2.72,1.59-5.53,2.51-8.97,2.51c-6.62,0-10.27-4.69-10.27-11.44c0-7.58,4.27-11.48,10.06-11.48c6.03,0,9.81,3.98,9.81,12.15
					C336.13,40.74,336.13,41.2,336.09,41.58z M326.11,33.53c-1.72,0-2.68,1.17-2.93,3.35h6.28
					C329.09,34.67,328.33,33.53,326.11,33.53z"/>
				<path d="M358.88,41.58h-12.91c0.25,2.43,1.68,3.52,3.73,3.52c1.93,0,3.52-0.42,5.7-1.55l2.89,4.82
					c-2.72,1.59-5.53,2.51-8.97,2.51c-6.62,0-10.27-4.69-10.27-11.44c0-7.58,4.27-11.48,10.06-11.48c6.03,0,9.81,3.98,9.81,12.15
					C358.92,40.74,358.92,41.2,358.88,41.58z M348.91,33.53c-1.72,0-2.68,1.17-2.93,3.35h6.28
					C351.88,34.67,351.13,33.53,348.91,33.53z"/>
				<path d="M375.55,50.42l-3.31-9.18l-1.97,2.51v6.66h-7.54V22.89l7.54-3.02v8.97c0,1.47-0.08,4.86-0.12,6.24
					c0.54-1.05,2.39-3.56,3.31-4.78l1.47-1.89h8.59l-5.7,6.62l5.87,15.38H375.55z"/>
				<path class="st1" d="M391.9,51.08c-3.14,0-5.47-2.33-5.47-5.47c0-3.14,2.33-5.38,5.47-5.38c3.14,0,5.47,2.24,5.47,5.38
					C397.37,48.75,395.04,51.08,391.9,51.08z"/>
				<path d="M414.48,34.75c-1.8-1.84-3.39-2.68-5.36-2.68c-3.14,0-5.15,2.81-5.15,7.29c0,4.32,1.84,7.42,5.28,7.42
					c2.05,0,3.27-0.92,4.99-2.72l2.77,2.72c-1.72,2.18-3.9,4.11-7.88,4.11c-5.36,0-9.51-4.53-9.51-11.4
					c0-7.29,4.27-11.52,9.64-11.52c3.23,0,5.74,1.3,7.79,3.73L414.48,34.75z"/>
				<path d="M430.02,50.88c-5.53,0-9.68-4.57-9.68-11.44c0-7.21,4.27-11.48,9.81-11.48c5.61,0,9.8,4.48,9.8,11.36
					C439.95,46.61,435.68,50.88,430.02,50.88z M429.98,32.07c-3.27,0-5.28,2.89-5.28,7.25c0,4.82,2.22,7.46,5.49,7.46
					c3.27,0,5.41-3.31,5.41-7.33C435.6,34.96,433.46,32.07,429.98,32.07z"/>
				<path d="M469.58,50.42V37.98c0-4.44-1.38-6.03-4.23-6.03c-2.89,0-4.23,2.05-4.23,5.62v12.86h-4.32V37.98
					c0-4.44-1.38-6.03-4.23-6.03c-2.89,0-4.23,2.05-4.23,5.62v12.86h-4.32v-22h4.32v2.1c1.09-1.59,2.98-2.56,5.24-2.56
					c2.98,0,4.86,1.13,6.03,3.23c1.59-1.97,3.31-3.23,6.75-3.23c5.11,0,7.54,3.35,7.54,9.85v12.61H469.58z"/>
			</g>
		</g>
	</g>
</g>
</svg>
