<?xml version="1.0" encoding="utf-8"?>
<!-- Generator: Adobe Illustrator 23.0.0, SVG Export Plug-In . SVG Version: 6.00 Build 0)  -->
<svg version="1.1" id="Layer_1" xmlns="http://www.w3.org/2000/svg" xmlns:xlink="http://www.w3.org/1999/xlink" x="0px" y="0px"
	 viewBox="0 0 350 64" style="enable-background:new 0 0 350 64;" xml:space="preserve">
<style type="text/css">
	.st0{fill:#509E2F;}
	.st1{fill:#154734;}
</style>
<g>
	<path class="st0" d="M71.78,32c0,17.67-14.33,32-32,32c-17.67,0-32-14.33-32-32c0-17.67,14.33-32,32-32
		C57.45,0,71.78,14.33,71.78,32z"/>
	<g>
		<g>
			<g>
				<path d="M39.51,39.48v10.94H31.3V39.61L20.44,21.09h9.39l2.26,4.44c1.55,3.06,2.81,5.87,3.35,7.58c0.54-1.72,1.8-4.53,3.35-7.58
					l2.26-4.44h9.3L39.51,39.48z"/>
				<path d="M58.11,50.88c-6.08,0-10.43-3.9-10.43-11.48c0-7.67,4.36-11.44,10.43-11.44c6.08,0,10.48,3.77,10.48,11.44
					C68.59,46.98,64.19,50.88,58.11,50.88z M58.11,34.08c-1.97,0-2.98,1.59-2.98,5.32c0,3.64,1.01,5.36,2.98,5.36
					c1.97,0,2.98-1.72,2.98-5.36C61.09,35.67,60.08,34.08,58.11,34.08z"/>
				<path d="M86.43,36.72c-0.96-1.05-2.05-1.84-3.52-1.84c-1.84,0-2.97,0.88-2.97,3.56v11.98H72.4v-22h7.54v1.59
					c1.3-1.26,2.77-2.05,4.69-2.05c1.59,0,2.68,0.38,3.56,0.92L86.43,36.72z"/>
				<path d="M103.99,50.42l-3.31-9.18l-1.97,2.51v6.66h-7.54V22.89l7.54-3.02v8.97c0,1.47-0.08,4.86-0.13,6.24
					c0.54-1.05,2.39-3.56,3.31-4.78l1.47-1.89h8.59l-5.7,6.62l5.87,15.38H103.99z"/>
				<path d="M131.89,50.42l-4.78-9.89h-3.27v9.89h-8V21.09h13.12c6.87,0,11.44,2.6,11.44,9.55c0,4.4-2.05,7.12-5.28,8.59l5.87,11.19
					H131.89z M128.75,27.71h-4.9v6.41h4.78c2.64,0,3.69-1.17,3.69-3.27C132.31,29.01,131.3,27.71,128.75,27.71z"/>
				<path d="M163.07,41.58h-12.91c0.25,2.43,1.68,3.52,3.73,3.52c1.93,0,3.52-0.42,5.7-1.55l2.89,4.82
					c-2.72,1.59-5.53,2.51-8.97,2.51c-6.62,0-10.27-4.69-10.27-11.44c0-7.58,4.27-11.48,10.06-11.48c6.03,0,9.8,3.98,9.8,12.15
					C163.11,40.74,163.11,41.2,163.07,41.58z M153.1,33.53c-1.72,0-2.68,1.17-2.93,3.35h6.29C156.07,34.67,155.32,33.53,153.1,33.53
					z"/>
				<path d="M174.71,58.51l-2.77-4.36c5.36-0.88,6.66-1.72,6.66-4.73v-0.75c-1.47,1.17-2.89,2.01-5.2,2.01
					c-4.11,0-7.29-3.02-7.29-11.19c0-7.88,2.81-11.52,7.58-11.52c2.22,0,3.69,1.01,4.9,1.93v-1.47h7.58v18.69
					C186.2,54.65,182.68,57.38,174.71,58.51z M178.61,35.21c-0.75-0.63-1.51-1.05-2.68-1.05c-1.55,0-2.39,0.96-2.39,5.07
					c0,4.4,0.84,5.45,2.43,5.45c1.09,0,1.89-0.42,2.64-1.05V35.21z"/>
				<path d="M194.87,26.83c-2.47,0-4.32-1.42-4.32-3.73c0-2.14,1.84-3.64,4.32-3.64c2.6,0,4.4,1.51,4.4,3.64
					C199.27,25.41,197.46,26.83,194.87,26.83z M191.1,50.42v-22h7.54v22H191.1z"/>
				<path d="M213.09,50.88c-6.08,0-10.43-3.9-10.43-11.48c0-7.67,4.36-11.44,10.43-11.44s10.47,3.77,10.47,11.44
					C223.57,46.98,219.17,50.88,213.09,50.88z M213.09,34.08c-1.97,0-2.98,1.59-2.98,5.32c0,3.64,1.01,5.36,2.98,5.36
					c1.97,0,2.97-1.72,2.97-5.36C216.07,35.67,215.06,34.08,213.09,34.08z"/>
				<path d="M239.99,50.42V37.93c0-2.85-0.96-3.6-2.51-3.6c-1.59,0-2.56,0.75-2.56,3.52v12.57h-7.54v-22h7.54v1.47
					c1.38-1.05,2.93-1.93,5.53-1.93c4.82,0,7.12,3.23,7.12,9.01v13.45H239.99z"/>
				<path class="st1" d="M257.22,51.08c-3.14,0-5.47-2.33-5.47-5.47c0-3.14,2.33-5.38,5.47-5.38c3.14,0,5.47,2.24,5.47,5.38
					C262.69,48.75,260.36,51.08,257.22,51.08z"/>
				<path d="M279.8,34.75c-1.8-1.84-3.39-2.68-5.36-2.68c-3.14,0-5.15,2.81-5.15,7.29c0,4.32,1.84,7.42,5.28,7.42
					c2.05,0,3.27-0.92,4.99-2.72l2.77,2.72c-1.72,2.18-3.9,4.11-7.88,4.11c-5.36,0-9.51-4.53-9.51-11.4
					c0-7.29,4.27-11.52,9.64-11.52c3.23,0,5.74,1.3,7.79,3.73L279.8,34.75z"/>
				<path d="M295.34,50.88c-5.53,0-9.68-4.57-9.68-11.44c0-7.21,4.27-11.48,9.8-11.48c5.62,0,9.8,4.48,9.8,11.36
					C305.27,46.61,301,50.88,295.34,50.88z M295.3,32.07c-3.27,0-5.28,2.89-5.28,7.25c0,4.82,2.22,7.46,5.49,7.46
					c3.27,0,5.41-3.31,5.41-7.33C300.91,34.96,298.78,32.07,295.3,32.07z"/>
				<path d="M334.89,50.42V37.98c0-4.44-1.38-6.03-4.23-6.03c-2.89,0-4.23,2.05-4.23,5.61v12.86h-4.32V37.98
					c0-4.44-1.38-6.03-4.23-6.03c-2.89,0-4.23,2.05-4.23,5.61v12.86h-4.32v-22h4.32v2.1c1.09-1.59,2.98-2.56,5.24-2.56
					c2.98,0,4.86,1.13,6.03,3.23c1.59-1.97,3.31-3.23,6.75-3.23c5.11,0,7.54,3.35,7.54,9.85v12.61H334.89z"/>
			</g>
		</g>
	</g>
</g>
</svg>
